<svg viewBox="0 0 50 50" xmlns="http://www.w3.org/2000/svg" xmlns:xlink="http://www.w3.org/1999/xlink"><style>:root>svg{display:none}:root>svg:target{display:block}</style><svg viewBox="0 0 65 65" id="cog"><path d="M51.5 36.3l4.3 2.4c.5.2.7.8.5 1.3a24 24 0 01-5.6 9.3 1 1 0 01-1.4.2L45 47.1a19.4 19.4 0 01-6.1 3.5v4.9c0 .5-.4 1-.9 1.1a26 26 0 01-11.1 0 1 1 0 01-.9-1.1v-4.9a20 20 0 01-6.2-3.5l-4.3 2.4a1 1 0 01-1.4-.1c-2.6-2.7-4.5-6-5.5-9.6-.1-.5.1-.9.5-1.2l4.4-2.3c-.4-2.3-.4-4.7 0-7L9.2 27c-.5-.2-.8-.9-.5-1.4a24 24 0 015.6-9.3 1 1 0 011.4-.2l4.3 2.4c1.8-1.5 3.8-2.7 6-3.5v-4.9c0-.5.4-1 .9-1.1A26 26 0 0138 9c.6.1 1 .5 1 1.1V15c2.2.8 4.3 2 6.1 3.5l4.3-2.4a1 1 0 011.4.1c2.6 2.7 4.5 6 5.5 9.6.1.5-.1.9-.5 1.2l-4.3 2.4a20 20 0 010 6.9zm-11.7-3.5c0-4.2-3.5-7.5-7.7-7.5s-7.7 3.4-7.7 7.5 3.5 7.5 7.7 7.5h.1c4.2 0 7.6-3.4 7.6-7.5z"/></svg><svg viewBox="0 0 32 32" id="folder-open"><path d="M26 30l6-16H6L0 30zM4 12L0 30V4h9l4 4h13v4z"/></svg></svg>